<svg width="256" height="315" xmlns="http://www.w3.org/2000/svg" preserveAspectRatio="xMidYMid">
 <g>
  <title>background</title>
  <rect x="-1" y="-1" width="258" height="317" id="canvas_background" fill="none"/>
 </g>

 <g>
  <title>Layer 1</title>
  <g id="svg_1">
   <g id="svg_10">
    <path d="m256.87857,128.86803c0,70.45514 -57.11008,127.56471 -127.56622,127.56471c-70.45012,0 -127.56622,-57.10957 -127.56622,-127.56471c0,-70.45012 57.1161,-127.56622 127.56622,-127.56622c70.45614,0 127.56622,57.1161 127.56622,127.56622" fill="#1A1918" id="svg_11"/>
    <path d="m131.45986,79.22889l33.0116,81.47625l-49.86345,-39.27781l16.85185,-42.19844zm58.64448,100.24523l-50.77857,-122.20207c-1.44952,-3.52436 -4.34807,-5.38926 -7.86591,-5.38926c-3.52436,0 -6.63386,1.8649 -8.08338,5.38926l-55.73288,134.04036l19.06532,0l22.06231,-55.26527l65.83887,53.18993c2.64792,2.14114 4.55852,3.1095 7.0422,3.1095c4.97389,0 9.32146,-3.72879 9.32146,-9.11101c0,-0.87595 -0.3094,-2.26621 -0.86942,-3.76144l0,0z" fill="#FFFFFF" id="svg_12"/>
   </g>
  </g>
 </g>
</svg>